<?xml version="1.0" encoding="utf-8"?>
<!-- Generator: Adobe Illustrator 23.0.2, SVG Export Plug-In . SVG Version: 6.00 Build 0)  -->
<svg version="1.1" id="Layer_1" xmlns="http://www.w3.org/2000/svg" xmlns:xlink="http://www.w3.org/1999/xlink" x="0px" y="0px"
	 viewBox="0 0 358.7198 225.3295" enable-background="new 0 0 358.7198 225.3295" xml:space="preserve">
<g>
	<path d="M257.169,173.1713c2.1817,0,4.3028,0.2588,6.3418,0.7334l0.416,0.5576c2.4532,3.294,6.2188,5.0327,10.0332,5.0327
		c0.2891,0,0.5791-0.0136,0.8682-0.0336c5.2588,4.2856,8.9395,10.4365,10.0156,17.4375h0.6514
		c2.0615-13.42,13.6855-23.7295,27.6738-23.7295c13.9883,0,25.6123,10.3095,27.6739,23.7295h12.7382v-39h-45.3125l-22.7402-68.8892
		c1.3652-1.958,2.3184-4.2188,2.75-6.6626c0.1162-0.6548,0.1895-1.3232,0.2266-2.002h12.2138V41.6772h-58v4.2226h-8.999
		l3.6279,19.7534c0.9932-0.7124,2.0069-1.4619,3.0635-2.291c1.7774-1.393,3.9102-2.1294,6.1631-2.1294
		c3.0977,0,5.9678,1.3951,7.8779,3.8296c1.6465,2.1031,2.377,4.7207,2.0557,7.3731c-0.3193,2.6523-1.6553,5.0195-3.7568,6.667
		c-0.5459,0.4277-1.087,0.8335-1.6289,1.2426h3.8144c0.0371,0.6788,0.1104,1.3472,0.2266,2.002
		c0.4121,2.331,1.292,4.5005,2.5586,6.3945l-8.5235,25.8218c-1.8769-1.0908-4.0195-1.7012-6.2656-1.7012h-43.3936
		c0.0166-7.4394,0.9698-15.0805,2.1934-22.2998c-0.4697-0.2431-0.9404-0.4853-1.3984-0.7514
		c-3.8975-2.2559-7.4151-5.3453-10.458-9.1812c-4.1407-5.2695-6.2071-10.2588-7.0704-12.7627l-0.0361-0.1035
		c-1.7119-5.3145,1.1817-10.9605,6.4287-12.6528c0.9971-0.3213,2.0303-0.4839,3.0694-0.4839c4.3369,0,8.1552,2.772,9.5048,6.8945
		l0.0469,0.1323c0.0567,0.1548,0.1719,0.4497,0.335,0.8321c0.2549,0.5918,0.7998,1.7837,1.6396,3.1728
		c0.8565,1.4351,1.8535,2.749,2.917,3.8823l10.4697,4.6705c3.7676-0.0503,9.7618-1.4834,18.3672-7.3018l-2.3086-12.5557
		l-8.9306,5.5161L198.464,48.3422c-0.1622-0.0727-0.3282-0.1299-0.4932-0.1909c-0.6221-0.2905-1.2725-0.5303-1.9561-0.7007
		c-8.5371-2.1289-20.9121,2.5078-25.9472,17.1504c-6.8047,20.1738-8.2676,33.3047-5.6817,55.5195
		c2.752,14.1602,11.6172,17.1441,19.9483,17.5786c0.6308,0.0982,1.2724,0.1641,1.9306,0.1641h50.3926l3.3613,4.5108l-5.125,15.5249
		H134.1925c0.2246,2.207-0.2754,4.5014-1.5869,6.4946c-1.8604,2.8222-4.9854,4.5054-8.3643,4.5054
		c-1.9502,0-3.8467-0.5684-5.4844-1.646l-14.1758-9.3238v38.9698h12.9151c2.0615-13.4195,13.6845-23.7286,27.6748-23.7286
		c13.9873,0,25.6113,10.3091,27.6728,23.7286h0.6524c2.0615-13.4195,13.6855-23.7286,27.6728-23.7286
		c13.9883,0,25.6133,10.3091,27.6748,23.7286h0.6524C231.5577,183.4794,243.1807,173.1713,257.169,173.1713z M282.7608,157.8989
		l-24.414-32.7681l9.6787-29.3198c1.1904,0.2671,2.4248,0.4199,3.6963,0.4199c1.1777,0,2.3271-0.1231,3.4375-0.3535l20.4726,62.0215
		H282.7608z M260.0665,79.3998c0-6.4267,5.2275-11.6543,11.6543-11.6543c6.4258,0,11.6533,5.2276,11.6533,11.6543
		c0,6.4258-5.2275,11.6524-11.6533,11.6524C265.294,91.0522,260.0665,85.8256,260.0665,79.3998z M248.7755,154.1264l2.8105,3.7725
		h-4.0556L248.7755,154.1264z"/>
	<rect x="302.7208" y="49.0112" width="30.251" height="24"/>
	<path d="M293.7198,35.8158h8.0781c0.6748,1.0962,1.875,1.834,3.2569,1.834h19.666c2.1172,0,3.834-1.7168,3.834-3.833
		c0-2.1172-1.7168-3.834-3.834-3.834h-19.666c-1.3819,0-2.5811,0.7373-3.2559,1.833h-8.0791v-5.583h-37l-2.8584,13.4444h39.8584
		V35.8158z"/>
	<path d="M263.5186,79.3998c0,4.5205,3.6788,8.1983,8.2022,8.1983s8.2012-3.6778,8.2012-8.1983
		c0-4.5244-3.6778-8.2021-8.2012-8.2021S263.5186,74.8754,263.5186,79.3998z"/>
	<polygon points="335.2198,75.1772 336.4718,75.621 358.7198,83.5112 358.7198,38.5112 336.4718,46.4013 335.2198,46.8451 	"/>
	<path d="M145.17,177.1703c-13.2539,0-23.999,10.7452-23.999,23.9991c0,13.2539,10.7451,23.999,23.999,23.999
		c13.2539,0,23.999-10.7451,23.999-23.999C169.169,187.9155,158.4239,177.1703,145.17,177.1703z M157.837,201.1694
		c0,6.9961-5.6709,12.667-12.666,12.667c-6.9961,0-12.667-5.6709-12.667-12.667c0-6.9952,5.6709-12.6661,12.667-12.6661
		C152.1661,188.5033,157.837,194.1742,157.837,201.1694z"/>
	<path d="M201.17,177.1703c-13.2539,0-23.999,10.7452-23.999,23.9991c0,13.2539,10.7451,23.999,23.999,23.999
		c13.2539,0,23.999-10.7451,23.999-23.999C225.169,187.9155,214.4239,177.1703,201.17,177.1703z M213.837,201.1694
		c0,6.9961-5.6709,12.667-12.666,12.667c-6.9961,0-12.667-5.6709-12.667-12.667c0-6.9952,5.6709-12.6661,12.667-12.6661
		C208.1661,188.5033,213.837,194.1742,213.837,201.1694z"/>
	<path d="M281.169,201.1694c0-13.2539-10.7451-23.9991-23.999-23.9991c-13.2539,0-23.999,10.7452-23.999,23.9991
		c0,13.2539,10.7451,23.999,23.999,23.999C270.4239,225.1684,281.169,214.4233,281.169,201.1694z M244.504,201.1694
		c0-6.9952,5.6709-12.6661,12.667-12.6661c6.9951,0,12.666,5.6709,12.666,12.6661c0,6.9961-5.6709,12.667-12.666,12.667
		C250.1749,213.8364,244.504,208.1655,244.504,201.1694z"/>
	<path d="M313.17,177.1703c-13.2539,0-23.999,10.7452-23.999,23.9991c0,13.2539,10.7451,23.999,23.999,23.999
		s23.999-10.7451,23.999-23.999C337.169,187.9155,326.4239,177.1703,313.17,177.1703z M325.837,201.1694
		c0,6.9961-5.6709,12.667-12.666,12.667c-6.9961,0-12.667-5.6709-12.667-12.667c0-6.9952,5.6709-12.6661,12.667-12.6661
		C320.1661,188.5033,325.837,194.1742,325.837,201.1694z"/>
	<path d="M216.9581,76.2167c-3.166-0.0141-5.5039-0.7886-7.6094-1.9873c-3.125-1.7798-5.6465-4.8218-7.2676-7.5361
		c-0.8134-1.3452-1.4023-2.5742-1.7636-3.4194c-0.1817-0.4209-0.3067-0.7457-0.3809-0.941
		c-0.0342-0.0952-0.0566-0.1606-0.0664-0.1889l0,0c-1.3691-4.1851-5.8633-6.48-10.0586-5.1284
		c-4.2051,1.3554-6.5156,5.8618-5.1601,10.0678c0.1933,0.5366,1.9892,6.1909,6.7929,12.3047
		c2.4131,3.044,5.627,6.2236,9.8965,8.6943c4.2305,2.4624,9.5469,4.1353,15.541,4.1353c0.0254,0,0.0508,0,0.0762-0.0005
		c10.0918-0.02,21.4648-4.4253,34.5596-14.688c3.4765-2.7265,4.0859-7.7553,1.3593-11.2319
		c-2.7255-3.4766-7.7539-4.0864-11.2295-1.3613C230.2589,73.8637,222.1612,76.2367,216.9581,76.2167z"/>
	<rect x="137.5811" y="142.8998" width="88" height="8.667"/>
	<path d="M247.4513,15.686c0.2265-3.0342-9.3086-6.2178-21.295-7.1114c-0.4912-0.0366-0.9716-0.062-1.455-0.0898
		c-3.4288-4.3067-8.4327-7.375-14.3086-8.2412c-12.2891-1.8125-23.7227,6.6845-25.5352,18.9736
		c-1.8115,12.2901,6.6836,23.7227,18.9717,25.5342c12.292,1.8125,23.7236-6.6826,25.5361-18.9727
		c0.1319-0.8974,0.2031-1.79,0.2285-2.6753c-1.6201-0.184-3.2939-0.4194-5.0146-0.7211
		c-11.8408-2.0762-21.0127-6.1915-20.4873-9.1885c0.0068-0.0386,0.0322-0.0723,0.042-0.1099
		c1.0146,2.833,10.0449,5.6509,21.2041,6.481c8.6338,0.6435,16.1631-0.0826,19.7969-1.6709
		C246.546,17.2773,247.3878,16.5351,247.4513,15.686z"/>
	<path d="M122.5274,81.5082c9.1934-8.3564,9.8682-22.583,1.5098-31.7744c-8.3574-9.1924-22.585-9.8682-31.7764-1.5127
		c-9.1904,8.3574-9.8672,22.586-1.5088,31.7764C99.1085,89.1899,113.335,89.8656,122.5274,81.5082z"/>
	<path d="M71.7784,100.1528c1.1348-2.418,3.1465-4.2491,5.6582-5.1563c1.0967-0.394,2.2363-0.5933,3.3916-0.5933
		c4.2002,0,7.9805,2.6558,9.4072,6.6075l3.7813,10.4873c4.4258-6.52,5.5898-14.7583,1.1113-19.8394
		c-5.8164-6.6015-18.6357-9.8154-31.0967-0.625c-17.0595,12.7383-25.7226,22.7139-36.2129,42.4658
		c-3.7304,8.5318-2.7158,14.6763,0.2471,19.3311l5.252,29.0674L5.0724,202.7758c-5.5528,4.1025-6.7276,11.9307-2.6241,17.4815
		c2.4532,3.3173,6.2344,5.0722,10.0645,5.0722c2.581,0,5.1846-0.7969,7.4199-2.4492l34.498-25.5
		c3.8165-2.8203,5.7149-7.6084,4.8711-12.2744l-2.331-12.9024l13.9287,7.6138l-9.4492,28.9673
		c-2.1397,6.5625,1.4443,13.6191,8.0088,15.7607c1.2881,0.42,2.5947,0.6202,3.8799,0.6202c5.2626,0,10.1582-3.3516,11.8808-8.626
		l12.666-38.8355c1.8614-5.7031-0.624-11.9658-5.8886-14.8432L61.7237,146.31c4.9492-6.8989,10.9551-13.3262,16.7129-19.0523
		l-7.0156-19.4633C70.5157,105.2841,70.6407,102.5683,71.7784,100.1528z"/>
	<path d="M119.8546,165.5829c1.3535,0.8902,2.8789,1.316,4.3867,1.316c2.6025,0.0004,5.1543-1.2676,6.6924-3.6045
		c2.4287-3.6919,1.4053-8.6509-2.2862-11.0791l-28.9404-19.0362l-11.3535-31.4887c-1.499-4.1553-6.083-6.3106-10.2373-4.8116
		c-4.1582,1.4995-6.3135,6.083-4.8145,10.2378l12.2559,33.9956c0.5918,1.6407,1.6719,3.0103,3.1299,3.9702L119.8546,165.5829z"/>
</g>
</svg>
